<?xml version="1.0" encoding="UTF-8" standalone="no"?>
<!-- Created with Inkscape (http://www.inkscape.org/) -->

<svg
   width="100"
   height="100"
   viewBox="0 0 26.458333 26.458333"
   version="1.1"
   id="svg5"
   xmlns="http://www.w3.org/2000/svg"
   xmlns:svg="http://www.w3.org/2000/svg">
  <defs
     id="defs2" />
  <g
     id="layer1"
     transform="translate(31.257496,-98.974778)">
    <g
       id="g1618"
       transform="matrix(1.0603833,0,0,1.0603833,1.8874304,-3.1651804)">
      <rect
         style="fill:#000080;stroke:none;stroke-width:0.302926;stroke-opacity:1"
         id="rect1331"
         width="24.95167"
         height="19.47777"
         x="-31.257496"
         y="99.146362"
         rx="2.310246"
         ry="2.3924448" />
      <path
         id="path1056"
         style="fill:#ffffff;stroke:none;stroke-width:0.264583;stroke-opacity:1"
         d="m -22.158337,98.974837 c -2.46113,6.66e-4 -5.369805,1.525833 -7.873422,1.671213 v 16.47807 c 3.786499,-0.14644 8.262502,-3.05886 11.24996,0 2.987458,-3.05886 7.463461,-0.14644 11.249959,0 v -16.47807 c -3.815034,-0.22154 -8.570661,-3.647045 -11.249959,0 -0.921009,-1.25367 -2.087375,-1.671561 -3.376538,-1.671213 z" />
      <path
         id="path1275"
         style="fill:#b3b3b3;stroke:none;stroke-width:0.264583;stroke-opacity:1"
         d="m -22.158337,113.56206 c -2.461129,6.7e-4 -5.369805,1.52583 -7.873422,1.67122 v 1.89084 c 3.786499,-0.14644 8.262502,-3.05886 11.24996,0 2.987458,-3.05886 7.463461,-0.14644 11.249959,0 v -1.89084 c -3.815034,-0.22154 -8.57066,-3.64705 -11.249959,0 -0.921009,-1.25368 -2.087376,-1.67157 -3.376538,-1.67122 z" />
      <g
         aria-label="Gudbuks"
         id="text1611"
         style="font-size:4.17151px;stroke-width:0.347626">
        <path
           d="m -25.96672,107.85031 q -0.29331,0.14258 -0.609025,0.21387 -0.315714,0.0713 -0.651798,0.0713 -0.759753,0 -1.20379,-0.42367 -0.444038,-0.4257 -0.444038,-1.15287 0,-0.73531 0.452185,-1.15694 0.452185,-0.42163 1.238417,-0.42163 0.303494,0 0.580508,0.057 0.279051,0.057 0.525513,0.16906 v 0.62939 q -0.254609,-0.14461 -0.507181,-0.2159 -0.250535,-0.0713 -0.503107,-0.0713 -0.46848,0 -0.723089,0.26276 -0.252572,0.26072 -0.252572,0.74753 0,0.48274 0.244425,0.7455 0.244424,0.26275 0.694572,0.26275 0.122213,0 0.226093,-0.0142 0.105917,-0.0163 0.189429,-0.0489 v -0.59069 h -0.478664 v -0.52551 h 1.222122 z"
           style="font-weight:bold;-inkscape-font-specification:'sans-serif Bold'"
           id="path421" />
        <path
           d="m -25.333254,107.18833 v -1.39322 h 0.733274 v 0.22813 q 0,0.18535 -0.002,0.46644 -0.002,0.27905 -0.002,0.37275 0,0.27497 0.01426,0.39719 0.01426,0.12017 0.04888,0.17517 0.04481,0.0713 0.116101,0.10999 0.07333,0.0387 0.167024,0.0387 0.228129,0 0.358489,-0.17517 0.13036,-0.17517 0.13036,-0.48681 v -1.12639 h 0.729199 v 2.28129 h -0.729199 v -0.32997 q -0.164987,0.19961 -0.350342,0.29534 -0.183318,0.0937 -0.405337,0.0937 -0.395153,0 -0.602914,-0.24239 -0.205724,-0.24239 -0.205724,-0.70475 z"
           style="font-weight:bold;-inkscape-font-specification:'sans-serif Bold'"
           id="path423" />
        <path
           d="m -20.786959,106.12915 v -1.22212 h 0.733273 v 3.16937 h -0.733273 v -0.32997 q -0.150729,0.20165 -0.33201,0.29534 -0.181281,0.0937 -0.419595,0.0937 -0.421632,0 -0.692536,-0.33405 -0.270904,-0.33608 -0.270904,-0.86363 0,-0.52755 0.270904,-0.8616 0.270904,-0.33608 0.692536,-0.33608 0.236277,0 0.417558,0.0957 0.183318,0.0937 0.334047,0.29331 z m -0.480701,1.47673 q 0.23424,0 0.356452,-0.17109 0.124249,-0.1711 0.124249,-0.497 0,-0.3259 -0.124249,-0.497 -0.122212,-0.17109 -0.356452,-0.17109 -0.232204,0 -0.356453,0.17109 -0.122212,0.1711 -0.122212,0.497 0,0.3259 0.122212,0.497 0.124249,0.17109 0.356453,0.17109 z"
           style="font-weight:bold;-inkscape-font-specification:'sans-serif Bold'"
           id="path425" />
        <path
           d="m -18.139028,107.60588 q 0.23424,0 0.356452,-0.17109 0.124249,-0.1711 0.124249,-0.497 0,-0.3259 -0.124249,-0.497 -0.122212,-0.17109 -0.356452,-0.17109 -0.23424,0 -0.360526,0.17313 -0.124249,0.1711 -0.124249,0.49496 0,0.32386 0.124249,0.497 0.126286,0.17109 0.360526,0.17109 z m -0.484775,-1.47673 q 0.150728,-0.19961 0.334047,-0.29331 0.183318,-0.0957 0.421632,-0.0957 0.421632,0 0.692536,0.33608 0.270903,0.33405 0.270903,0.8616 0,0.52755 -0.270903,0.86363 -0.270904,0.33405 -0.692536,0.33405 -0.238314,0 -0.421632,-0.0937 -0.183319,-0.0957 -0.334047,-0.29534 v 0.32997 h -0.7292 v -3.16937 h 0.7292 z"
           style="font-weight:bold;-inkscape-font-specification:'sans-serif Bold'"
           id="path427" />
        <path
           d="m -16.391394,107.18833 v -1.39322 h 0.733274 v 0.22813 q 0,0.18535 -0.002,0.46644 -0.002,0.27905 -0.002,0.37275 0,0.27497 0.01426,0.39719 0.01426,0.12017 0.04889,0.17517 0.04481,0.0713 0.116102,0.10999 0.07333,0.0387 0.167023,0.0387 0.228129,0 0.358489,-0.17517 0.13036,-0.17517 0.13036,-0.48681 v -1.12639 h 0.729199 v 2.28129 h -0.729199 v -0.32997 q -0.164987,0.19961 -0.350342,0.29534 -0.183318,0.0937 -0.405337,0.0937 -0.395153,0 -0.602914,-0.24239 -0.205724,-0.24239 -0.205724,-0.70475 z"
           style="font-weight:bold;-inkscape-font-specification:'sans-serif Bold'"
           id="path429" />
        <path
           d="m -13.397194,104.90703 h 0.7292 v 1.72523 l 0.83919,-0.83715 h 0.847338 l -1.114168,1.04695 1.201753,1.23434 h -0.884001 l -0.890112,-0.95122 v 0.95122 h -0.7292 z"
           style="font-weight:bold;-inkscape-font-specification:'sans-serif Bold'"
           id="path431" />
        <path
           d="m -8.840715,105.8664 v 0.55403 q -0.2342401,-0.0978 -0.4521852,-0.14666 -0.2179451,-0.0489 -0.4114478,-0.0489 -0.2077607,0 -0.309604,0.0529 -0.09981,0.0509 -0.09981,0.15888 0,0.0876 0.07536,0.13443 0.077401,0.0468 0.2749778,0.0693 l 0.1283228,0.0183 q 0.5601393,0.0713 0.753642,0.23424 0.1935027,0.16295 0.1935027,0.51125 0,0.3646 -0.2688669,0.54792 -0.2688668,0.18332 -0.8025268,0.18332 -0.2260926,0 -0.4684806,-0.0367 -0.24035,-0.0346 -0.494959,-0.10592 v -0.55403 q 0.217945,0.10592 0.446075,0.15888 0.230166,0.0529 0.4664428,0.0529 0.2138714,0 0.3218255,-0.0591 0.1079541,-0.0591 0.1079541,-0.17518 0,-0.0978 -0.075364,-0.14461 -0.073327,-0.0489 -0.2953462,-0.0754 l -0.1283228,-0.0163 q -0.4868124,-0.0611 -0.6823514,-0.22609 -0.19554,-0.16499 -0.19554,-0.50107 0,-0.36257 0.248498,-0.53774 0.248498,-0.17517 0.76179,-0.17517 0.2016501,0 0.423669,0.0306 0.2220188,0.0306 0.4827382,0.0957 z"
           style="font-weight:bold;-inkscape-font-specification:'sans-serif Bold'"
           id="path433" />
      </g>
    </g>
  </g>
</svg>
